<?xml version="1.0" encoding="utf-8"?>
<!-- Generator: Adobe Illustrator 15.1.0, SVG Export Plug-In . SVG Version: 6.00 Build 0)  -->
<!DOCTYPE svg PUBLIC "-//W3C//DTD SVG 1.1//EN" "http://www.w3.org/Graphics/SVG/1.1/DTD/svg11.dtd">
<svg version="1.1" id="Ebene_1" xmlns="http://www.w3.org/2000/svg" xmlns:xlink="http://www.w3.org/1999/xlink" x="0px" y="0px"
	 width="49.749px" height="31.8px" viewBox="0 0 49.749 31.8" enable-background="new 0 0 49.749 31.8" xml:space="preserve">
<g>
	<g>
		<g>
			<path fill="#FFFFFF" d="M25.15,31.8l-1.373-1.223c-2.927-2.605-6.005-5.671-9.568-9.221C10.129,17.294,5.506,12.689,0,7.684
				l2.69-2.959c5.574,5.066,10.231,9.705,14.341,13.798c2.955,2.943,5.572,5.55,8.018,7.808c2.719-2.781,5.233-5.949,7.674-9.025
				c1.42-1.788,2.887-3.638,4.376-5.388l0.725-0.853c2.121-2.496,4.314-5.077,6.633-7.502c0.166-0.175,0.349-0.388,0.545-0.615
				C45.958,1.84,47.268,0.323,49.028,0l0.721,3.935c-0.405,0.104-1.293,1.133-1.72,1.627c-0.242,0.28-0.47,0.543-0.679,0.763
				c-2.239,2.342-4.394,4.878-6.478,7.33l-0.727,0.854c-1.445,1.698-2.891,3.521-4.289,5.282c-2.918,3.677-5.936,7.479-9.373,10.742
				L25.15,31.8z"/>
		</g>
	</g>
</g>
</svg>
