<svg xmlns="http://www.w3.org/2000/svg" xmlns:xlink="http://www.w3.org/1999/xlink" version="1.1" x="0px" y="0px" width="461.381px" height="109.406px" viewBox="0 0 461.381 109.406" xml:space="preserve" class="style0"><style>.style0{enable-background:	new 0 0 461.381 109.406;}.style1{fill:	#2ECC71;}</style><g><path d="M1.44 6.122c0.479 0 1 0.1 1.4 0.355C1.44 7.4 0.5 8 0 8.3 C0 7.1 0.5 6.4 1.4 6.122z M3.958 8.996C4.437 9.2 5 9.4 5.8 9.357c0 0.2 0.1 0.2 0.2 0 c0.117-0.234 0.18-0.478 0.18-0.717C5.877 8.4 5.6 8.2 5.4 8.098C5.16 8 4.9 7.7 4.7 7.2 C4.437 7 4.3 6.7 4.3 6.477C4.32 6.2 4.2 6 4 5.76C3.476 5.3 3 4.9 2.5 4.681L2.88 4.32h3.958 c0.718 0 1.4 0.1 2 0.361c0.595 0.2 1.1 0.4 1.6 0.356c0.957-0.234 1.738-0.297 2.344-0.181 c0.595 0.1 1.3 0.3 2 0.542c0.717 0.2 1.4 0.3 2 0.181c0.596-0.117 1.1 0.1 1.6 0.5 c1.201 0.5 2.3 0.7 3.2 0.717c0.957 0 1.9 0.5 2.9 1.44c0.957-0.478 1.738-0.542 2.338-0.181 c0.596 0.4 1.3 0.8 2 1.26c1.44 0.5 2.8 0.8 4.1 1.079c1.317 0.2 2.7 0.6 4.1 1.1 c1.918 0.5 3.9 1.1 5.9 1.801c2.035 0.7 4.1 1.3 6.3 1.801c0.479 0.2 0.8 0.4 1.1 0.4 c0.234 0 0.6 0.1 1.1 0.361c1.201 0.5 2.4 0.8 3.6 1.079c1.195 0.2 2.4 0.6 3.6 1.1 c0.478 0.2 1.1 0.5 1.8 0.717c0.723 0.2 1.3 0.5 1.8 0.718v0.361H60.46v0.361c0.478 0.2 1.1 0.4 1.8 0.4 c0.957 0 1.801-0.122 2.519-0.361c0.479 0 0.9 0.2 1.3 0.537c0.361 0.4 0.8 0.5 1.3 0.5 c0.723 0 1.1 0.2 1.3 0.722c0.122 0.5 0.3 1 0.5 1.436c0.234 0 0.2 0.2 0 0.7 c-0.244 0.483-0.483 0.844-0.717 1.079c0 0.245-0.488 0.122-1.44-0.361l-0.722 0.723c-0.483-0.478-0.898-1.02-1.259-1.621 c-0.361-0.596-1.142-0.542-2.338 0.181L61.9 23.752v-1.079c1.918 0.7 3.2 0.5 3.958-0.718c-0.483-0.239-0.961-0.6-1.44-1.083 c-0.483 0.483-0.957 0.781-1.435 0.903c-0.483 0.122-0.961-0.059-1.44-0.542h-0.722l-4.32-1.079 c-1.2-0.234-2.221-0.542-3.055-0.898c-0.845-0.361-1.865-0.776-3.061-1.259c-0.961 0-1.44-0.123-1.44-0.361 c-0.483-1.201-1.201-1.801-2.158-1.801c-0.961 0-1.923-0.118-2.88-0.361c-0.717-0.234-1.439-0.356-2.157-0.356 c-0.722 0-1.44-0.24-2.162-0.722c-0.483-0.234-1.079-0.298-1.796-0.181c-0.723 0.127-1.323 0.063-1.801-0.176 c-1.923-0.479-3.661-1.083-5.218-1.801c-1.562-0.723-3.3-1.319-5.219-1.801c-0.483 0-0.844 0.063-1.079 0.2 c-0.244 0.122-0.483 0.181-0.722 0.181c-0.239 0.244-0.356 0.482-0.356 0.717c1.196 0.5 2.2 1 3.1 1.4 c0.84 0.5 1.7 1 2.7 1.44c0.957 0.5 1.9 0.8 2.7 0.903c0.84 0.1 1.7 0.4 2.7 0.898l4.319 2.2 c1.196 0.7 2.5 1.5 3.8 2.338c1.318 0.8 2.6 1.6 3.8 2.343c0.722 0.5 1.4 0.9 2.2 1.3 c0.722 0.4 1.3 0.8 1.8 1.26c0.722 0.5 1.4 1 2 1.44c0.596 0.5 1.3 1 2 1.4 c1.196 0.7 2.3 1.4 3.4 2.158c1.079 0.7 2.2 1.4 3.4 2.158c1.195 0.5 2.3 1.1 3.4 1.8 c1.083 0.7 2.1 1.6 3.1 2.519c0.723 0.7 1.5 1.4 2.3 1.983c0.839 0.6 1.7 1.3 2.7 2 c2.641 1.4 4.9 3 6.8 4.682c0.478 0.5 0.8 0.8 0.9 1.078c0.122 0.2 0.4 0.6 0.9 1.1 c1.196 1.2 2.3 2.3 3.4 3.241c1.079 1 2.2 2 3.4 3.236c0.474 0.5 1 0.9 1.4 1.3 c0.479 0.4 1 0.7 1.4 0.899c2.163 1 3.9 2.8 5.2 5.398c1.318 2.6 1.9 4.9 1.6 6.8 c0 0.477-0.239 0.957-0.717 1.439c-0.961-0.482-1.923-0.898-2.879-1.26c-0.962-0.361-1.802-0.42-2.52-0.18 c-1.206 0.477-2.401 0.115-3.598-1.08L87.454 67.3c-0.483 0.477-0.845 0.541-1.079 0.18c-0.244-0.361-0.6-0.664-1.079-0.898 c-0.483 0.479-0.844 0.719-1.079 0.719c-0.961-0.484-2.162-0.963-3.602-1.441c-0.483-0.238-0.962-0.42-1.44-0.537 c-0.483-0.125-0.962-0.424-1.44-0.902v-0.719c-1.435 0-2.821-0.062-4.134-0.178c-1.323-0.123-2.7-0.305-4.14-0.537v-0.363 l1.44-0.723c-0.722 0-1.386-0.059-1.982-0.18c-0.6-0.123-1.259-0.303-1.977-0.537c-0.244 0.477-0.361 0.898-0.361 1.3 c0 0.359-0.123 0.896-0.361 1.619v-1.076c-0.483-0.49-0.718-1.086-0.718-1.803c0-0.723-0.605-0.846-1.801-0.361 c-0.483 0-0.717-0.238-0.717-0.719c-0.244-0.482-0.786-0.961-1.62-1.439c-0.845-0.482-1.504-0.6-1.982-0.359 c-1.68 0.721-2.88 0.477-3.598-0.721c-0.244-0.482-0.844-0.959-1.801-1.438c-1.201 0-2.158-0.361-2.876-1.081 c-0.488-0.243-0.785-0.487-0.902-0.721c-0.122-0.24-0.419-0.484-0.898-0.717c-0.722-0.723-1.801-0.844-3.241-0.361 c-0.717 0-1.44-0.245-2.158-0.722c-0.717-0.483-1.439-0.357-2.157 0.361c-0.722-0.718-0.961-1.079-0.722-1.079 c-0.718-0.717-1.44-1.079-2.158-1.079c-0.483-0.244-1.025-0.304-1.621-0.181c-0.601 0.117-1.142 0.181-1.62 0.2 c-0.483 0-0.782-0.064-0.898-0.181c-0.122-0.123-0.42-0.18-0.898-0.18v-0.361h1.796c0-0.24 0.058-0.357 0.18-0.357 c0.117 0 0.181-0.126 0.181-0.361c-2.641 0.478-5.165 0.117-7.557-1.078c-2.401-1.206-4.92-2.041-7.561-2.519 c1.44-0.962 2.28-1.441 2.524-1.441c0.474 0.2 1.1 0.4 1.8 0.537c0.722 0.1 1.3 0.3 1.8 0.5 c0.958 0.2 1.8 0.6 2.5 1.078c0.717 0.5 1.4 0.6 2.2 0.361c1.439 0 2.8 0.3 4 0.9 c1.2 0.6 2.4 0.9 3.6 0.898c0.473 0 1 0.1 1.6 0.361c0.596 0.2 1.1 0.5 1.6 0.7 c1.439 0.5 3.1 1 5 1.44c0.239 0.2 0.5 0.4 0.7 0.356c0.234 0 0.6 0.1 1.1 0.4 c0.957 0.5 1.8 0.7 2.5 0.718c0.478 0.5 1 0.7 1.4 0.722c0.958 0.5 1.9 0.8 2.9 0.9 c0.957 0.1 1.9 0.4 2.9 0.901c0.952 0.2 1.9 0.5 2.7 0.719c0.835 0.2 1.7 0.5 2.7 0.7 c0.479 0.2 0.8 0.4 1.1 0.361c0.234 0 0.5 0.1 0.7 0.361c0.957 0.7 1.9 1.2 2.9 1.4 c0.957 0.2 2 0.5 3.2 0.717c0.234 0 0.4 0.1 0.5 0.182c0.118 0.1 0.3 0.2 0.5 0.2 c0.958 0.5 1.9 0.8 2.7 0.898c0.835 0.1 1.7 0.4 2.7 0.904c0.717 0 1.6 0.2 2.5 0.7 c0.479 0.7 1 1.1 1.6 1.078c0.6 0 1.3 0.1 2 0.361c0.718 0.2 1.6 0.3 2.5 0.2 c0.957-0.121 1.8 0.2 2.5 0.898c0 0.5 0.2 0.5 0.7 0c0.952-0.24 1.914-0.719 2.875-1.441 c-0.239 0.24-0.483 0.361-0.718 0.361l-1.079-2.156c-0.723-0.961-1.684-1.322-2.88-1.084c0.234-0.238 0.361-0.42 0.361-0.537 c0-0.127 0.118-0.303 0.356-0.543c-0.718-0.238-1.436-0.482-2.158-0.717c-0.718-0.244-1.44-0.482-2.158-0.721 c0.234-1.203-0.483-1.797-2.162-1.797c-0.483-0.484-0.42-0.905 0.18-1.26c0.596-0.361 0.542-0.782-0.18-1.259l-0.717 0.7 c-0.483-0.24-0.898-0.484-1.26-0.717c-0.361-0.245-0.781-0.484-1.259-0.723c-0.483-0.239-0.782-0.483-0.903-0.718 c-0.123-0.244-0.303-0.484-0.537-0.723l-0.723-0.717c0-1.206-0.6-1.562-1.796-1.079c-0.961 0.479-1.562 0.479-1.801 0 c-0.24-0.483-0.483-0.961-0.718-1.439h-1.801c0-0.244 0.235-0.844 0.723-1.802c-0.245-0.483-0.664-0.42-1.265 0.2 c-0.601 0.594-1.021 0.415-1.259-0.543c-0.483 0-0.781 0.06-0.898 0.182c-0.122 0.117-0.419 0.18-0.898 0.2 c0-0.483 0.054-0.781 0.181-0.898c0.117-0.126 0.181-0.424 0.181-0.902c-0.723 0-1.206-0.122-1.44-0.357 c-0.244 1.196-0.361 2.217-0.361 3.056c0 0.839-0.123 1.737-0.361 2.7c-0.239-0.962-0.303-1.796-0.181-2.519 c0.118-0.718 0.059-1.563-0.181-2.519c-0.239-0.719-0.84-1.802-1.796-3.237c-0.483-0.483-0.961-0.785-1.439-0.904 c-0.483-0.12-0.961-0.418-1.44-0.898c-0.245 0-0.483-0.063-0.723-0.18c-0.24-0.123-0.483-0.182-0.718-0.182 c-0.717 0-1.079-0.122-1.079-0.361c-0.722-1.201-1.684-1.678-2.88-1.435h-0.362c0-0.488 0.059-0.786 0.182-0.903 c0.117-0.122 0.18-0.42 0.18-0.898c-0.717 0.234-1.381 0.415-1.977 0.541c-0.606 0.118-1.265 0.176-1.982 0.2 c0-0.239-0.245-0.6-0.719-1.078c0.474-0.239 1.08-0.361 1.797-0.361c-0.961-0.961-1.797-1.563-2.519-1.796 c0 0.233-0.122 0.361-0.361 0.361h-0.718c-0.722-0.723-1.684-0.723-2.88 0l-0.361-0.361c-0.239 0-0.356-0.128-0.356-0.361 c-0.483-0.718-0.961-1.801-1.44-3.237c-0.483 0.235-1.078 0.176-1.801-0.18c-0.718-0.361-1.323-0.307-1.801 0.2 c-0.24 0-0.483-0.126-0.717-0.361c-0.245-0.483-0.484-0.898-0.718-1.259c-0.245-0.361-0.606-0.78-1.083-1.259 c0 0.479-0.24 0.958-0.718 1.44c-0.244 0-0.844-0.244-1.801-0.722c0.478-0.483 0.957-0.844 1.439-1.08h-2.879v-2.88 c-0.962 0.722-1.923 1.206-2.875 1.44c-0.488-1.918-1.567-2.636-3.242-2.157c-0.244 0-0.361-0.117-0.361-0.361 c-0.239-0.234-0.356-0.479-0.356-0.718c-0.244-0.478-0.723-1.02-1.441-1.621c-0.722-0.595-1.205-0.776-1.44-0.542 c-0.483 0.483-1.025 0.6-1.62 0.361c-0.6-0.234-1.142-0.234-1.621 0c-0.483 0-0.718-0.234-0.718-0.723 c-0.244-0.234-0.361-0.718-0.361-1.435l-1.44 0.717l-1.801-1.801l-0.356-0.718c-0.483-0.957-0.844-1.557-1.083-1.801 c-0.483-0.234-1.021-0.479-1.616-0.718c-0.605-0.24-1.143-0.479-1.621-0.722v-0.356l-2.158 1.079l2.158 2.2 c0.234 0 0.415-0.054 0.542-0.181c0.116-0.118 0.297-0.181 0.537-0.181l0.361 0.361c-0.245 0.244-0.425 0.361-0.542 0.4 c-0.123 0-0.303 0.122-0.537 0.361c-0.245 0.239-0.483 0.356-0.723 0.356c-0.24 0-0.601 0.127-1.079 0.361l0.362-0.361 c-0.723-0.479-1.44-0.776-2.163-0.898c-0.718-0.117-1.44-0.415-2.158-0.898c0.479-0.479 0.898-0.84 1.26-1.079 s0.776-0.479 1.26-0.723c-0.962-0.717-2.157-1.318-3.598-1.801l-1.44 0.723c-0.244-0.24-0.361-0.479-0.361-0.723 c0.24-0.235 0.415-0.356 0.542-0.356c0.118 0 0.298-0.118 0.537-0.361H4.681C4.198 9.8 4 9.2 4 8.996z M21.957 43.9 v0.361c-0.961 0.479-1.567 0.719-1.801 0.719l-0.723-0.719c-0.483-0.244-0.957-0.361-1.435-0.361c-0.483 0-0.961-0.122-1.44-0.361 V42.83L21.957 43.907z M75.216 24.114c0 0.2 0.1 0.5 0.4 0.717c-0.961-0.234-1.86-0.415-2.7-0.537 c-0.844-0.117-1.859-0.415-3.06-0.902c1.201-0.718 2.163-0.718 2.9 0C73.42 24.1 74.3 24.4 75.2 24.114z M77.379 29.2 c-1.206-0.239-2.763-0.361-4.682-0.361v-0.356c0.958-0.244 1.856-0.426 2.701-0.542c0.839-0.122 1.854-0.302 3.06-0.541 c-0.483-0.241-0.782-0.483-0.898-0.719c-0.127-0.233-0.424-0.478-0.903-0.718c0-0.239 0.059-0.361 0.181-0.361 c0.117 0 0.181-0.117 0.181-0.361c1.44 0.5 2.4 0.7 2.9 0.722v2.52c-0.483-0.244-1.079-0.361-1.801-0.361 C77.613 28.6 77.4 28.9 77.4 29.151z M97.529 39.226l-0.717-1.435l-0.361 0.357h-1.796 c-0.723-0.483-0.483-0.961 0.717-1.44c-0.239-0.239-0.302-0.419-0.181-0.537c0.118-0.126 0.059-0.302-0.181-0.541l-4.315-2.158 c-0.244 0-0.483 0.054-0.722 0.18c-0.24 0.119-0.483 0.182-0.718 0.182c-0.483 0-0.723-0.245-0.723-0.723v-1.08 c0-0.483-0.122-0.898-0.356-1.259c-0.244-0.361-0.488-0.78-0.722-1.26c-0.239 0.235-0.483 0.361-0.718 0.4 c-0.244 0.235-0.483 0.357-0.722 0.357c-0.483 0-0.781 0.058-0.898 0.18c-0.122 0.117-0.424 0.059-0.898-0.18 c-0.244 0-0.361-0.122-0.361-0.357V28.79c-0.244 0-0.844 0.239-1.801 0.722h-1.079c-0.245-0.244-0.361-0.424-0.361-0.541 c0-0.122-0.122-0.303-0.356-0.537c0.234-0.244 0.415-0.361 0.537-0.361c0.117 0 0.297-0.122 0.542-0.361 c-0.244 0-0.425-0.059-0.542-0.181c-0.123-0.123-0.303-0.18-0.537-0.18c0-0.241 0.117-0.483 0.356-0.719 c1.201 0 2.2 0.1 2.9 0.361v0.718c1.919 0 3.4 0.1 4.3 0.361l2.158 1.079c1.201 0.5 2.5 0.8 3.8 0.9 c1.318 0.1 2.6 0.4 3.8 0.903c0.478 1.2 1.2 2 2.2 2.519c0.957 0.5 2 1.1 3.2 1.8 c0.239-0.239 0.42-0.483 0.542-0.718c0.117-0.243 0.298-0.483 0.542-0.717c0.473 0.5 0.8 0.7 1.1 0.7 c0.957-1.206 2.158-1.323 3.598-0.361c0.479 0.2 1.1 0.4 1.8 0.361c0.957 0.5 1.7 0.7 2.2 0.718v0.361 c0.479-0.239 1.021-0.483 1.621-0.719c0.596-0.243 1.259-0.483 1.977-0.722c0-0.717-0.239-1.021-0.718-0.898 c-0.482 0.119-0.961 0.182-1.44 0.182c-0.718 0.233-1.206 0-1.44-0.722l-1.079-2.158c-0.483 0.478-0.723 0.839-0.723 1.1 c-1.201-0.483-2.157-1.322-2.875-2.518c-0.722-1.2-1.923-1.8-3.602-1.8c-0.962-0.952-1.562-1.675-1.797-2.159 c0.235-0.478 0.718-1.079 1.44-1.801c0-0.474 0.234-0.718 0.717-0.718c0.718 0.2 1.4 0.4 2.2 0.4 c0.723 0 1.4 0.2 2.2 0.717c1.918 1.2 4.2 2 6.8 2.519c0.718 0 1.4 0 2.2 0c0.718 0 1.6 0.2 2.5 0.7 c0.957 0.7 2.6 1.3 5 1.796c0.722 0.2 1.6 0.4 2.5 0.542c0.957 0.1 1.7 0.8 2.2 2 c1.439-0.717 2.519-0.483 3.2 0.722c0.479 0.2 0.8 0.4 1.1 0.361s0.479 0.1 0.7 0.4 c0.718 0.2 1.7 0.4 2.9 0.361c0.718 0.2 1.4 0.7 2.2 1.26c0.723 0.6 1.6 0.7 2.5 0.2 c0.239 0 0.4 0.1 0.4 0.181c0 0.1 0.1 0.2 0.4 0.18c0.952 0.5 1.8 1 2.5 1.6 c0.718 0.6 1.6 0.9 2.5 0.898c1.674 0 2.8 0.5 3.2 1.44c0 0.2 0.1 0.4 0.2 0.4 c0.118 0 0.2 0.1 0.2 0.361c1.201 0.5 2.2 0.8 3.1 0.904c0.835 0.1 1.9 0.4 3.1 0.9 c2.393 1 4.2 1.6 5.4 1.796c2.397 1 4.2 1.6 5.4 1.802c1.44 0.2 2.8 0.4 4 0.5 c1.201 0.1 2.4 0.7 3.6 1.617l0.356-0.357c0.239-0.245 0.361-0.483 0.361-0.723c0.722 1.7 1.8 2.5 3.2 2.5 c1.44 0 2.8 0.4 4 1.083c0.234-0.245 0.415-0.483 0.537-0.722c0.117-0.239 0.415-0.483 0.903-0.717 c0.473 0.7 0.8 1.7 1.1 3.056c0.234 1.3 1.3 1.4 3.2 0.18c0.239 0.5 0.5 0.8 0.7 1.1 c0.234 0.2 0.4 0.5 0.4 0.722c-0.483 0.956-0.537 1.493-0.176 1.621c0.356 0.1 0.8 0.2 1.3 0.2 c0.479 0 1 0.1 1.6 0.176c0.6 0.1 1.1 0.2 1.6 0.182c0.957 0.5 1.8 0.8 2.5 1.1 c0-1.201 0.181-2.337 0.542-3.417c0.361-1.078-0.302-1.86-1.981-2.338l-0.356-0.361c-0.244-0.718-0.542-1.08-0.903-1.08 c-0.356 0-0.781 0-1.26 0h-2.158v-0.361c0.479-0.483 0.957-0.845 1.44-1.079c0.479-0.244 0.957-0.602 1.44-1.079l-0.361-0.361 h-1.44c0 0.235-0.064 0.415-0.181 0.542c-0.122 0.117-0.181 0.296-0.181 0.537h-0.356l-0.361-0.718v-0.361 c0.957-1.2 1.079-1.859 0.361-1.976c-0.722-0.127-1.322-0.308-1.801-0.543c-0.961-0.722-1.078-1.561-0.361-2.518 c-1.201 0-1.923-0.424-2.157-1.26c-0.245-0.844-0.601-1.621-1.079-2.338c-0.722-0.961-1.567-1.439-2.519-1.439l-1.084-1.083v-1.435 c-0.239-0.245-0.601-0.845-1.079-1.802l0.361-0.361c1.918 0.5 3.5 0.8 4.7 1.08c0.239 0 0.361-0.123 0.361-0.357 c0-0.243 0.117-0.483 0.361-0.723l0.361-0.36l0.356-0.356c0.478 0.5 1 0.7 1.6 0.537c0.596-0.122 1.137-0.059 1.6 0.2 c2.397 1 4.2 1.6 5.4 1.802c0.958 0.2 1.7 0.6 2.3 1.078c0.596 0.5 1.4 1 2.3 1.4 c0.722 0.5 1.5 0.8 2.3 0.898c0.834 0.1 1.6 0.4 2.3 0.903c0.478 0.2 1.1 0.4 1.8 0.4 c0.723 0 1.3 0.1 1.8 0.361c0.957 0 1.6 0.1 1.8 0.361c0.957 0.5 1.9 1 2.7 1.4 c0.835 0.5 1.9 1 3.1 1.439c0.479 0.5 1 0.7 1.4 0.717c0.479 0 0.8 0.2 1.1 0.7 c0.479 0.7 1.1 1.2 2 1.44c0.84 0.2 1.6 0.6 2.3 1.083c1.675 0.5 2.5 0.8 2.5 1.1 c0.479 1 1.1 1.4 1.8 1.44c0.717 0 1.4 0.1 2.2 0.356c0.957 0.2 1.9 0.6 2.7 1.1 c0.84 0.5 1.9 0.5 3.1 0l0.361 0.357c1.197 0.5 2.4 1 3.6 1.621c1.196 0.6 2.5 0.9 4 0.9 c0.717 0 1.2 0.1 1.4 0.361c1.439 0.7 2.9 1.4 4.3 2.161c1.44 0.7 2.8 1.6 4 2.518l4.315 2.2 c0.239 0.7 0.7 1.3 1.3 1.803c0.601 0.5 1.1 0.5 1.6 0c0.722-0.484 1.201-0.543 1.439-0.182 c0.234 0.4 0.6 0.8 1.1 1.26l1.078 1.078c1.44 0 3.1 0.7 5 2.158c0.718 0.7 1.6 1.2 2.7 1.4 c1.079 0.2 2.1 0.6 3.1 1.078c0.957 0.5 2.4 1.4 4.3 2.879c0.234-0.238 0.84-0.238 1.8 0 c0.718 0.5 1.5 1 2.3 1.621c0.84 0.6 1.9 0.7 3.1 0.182c1.196 2.4 3.2 4 6.1 4.7 c0.234 0 0.5 0.1 0.7 0.361c1.201 1.2 2 1.9 2.5 2.158c0.475 0.2 0.8 0.4 1.1 0.4 c0.234 0 0.5 0.1 0.7 0.363c0-0.246 0.117-0.363 0.361-0.363l2.158 1.08l-0.356-0.357c0.473-0.244 0.834-0.484 1.078-0.723 c0.235-0.238 0.597-0.482 1.08-0.717l0.36 0.357c-1.685 1.199-2.046 2.279-1.083 3.24c0.723-0.244 1.917-0.363 3.603-0.363 l-0.723 1.08c0.478 0.5 1.2 1 2.2 1.439c0.234-0.238 0.356-0.482 0.356-0.717c0-0.244 0.122-0.482 0.361-0.723 c-1.68-0.482-2.157-1.199-1.44-2.158c-0.239 0-0.845-0.238-1.796-0.717c0.473-0.484 0.473-0.844 0-1.082 c-0.487-0.238-0.606-0.602-0.361-1.08h-1.801c-0.483-0.717-1.025-1.078-1.621-1.078c-0.602 0-1.139-0.123-1.616-0.361 c0.478-0.484 0.835-0.781 1.079-0.898c0.234-0.123 0.596-0.42 1.079-0.898c-0.718-0.482-1.382-0.781-1.982-0.904 c-0.6-0.121-1.137-0.418-1.615-0.896l-0.724 0.723c-0.481-0.723-0.779-1.387-0.897-1.982c-0.121-0.6-0.419-1.143-0.898-1.621 c-0.962 0.238-1.566 0.299-1.801 0.182c-0.244-0.121-0.361-0.898-0.361-2.338c-0.483 0-0.781-0.064-0.898-0.182 c-0.122-0.121-0.42-0.18-0.897-0.18c0.234-0.963-0.127-1.439-1.083-1.439h-3.599v-1.797c-0.483-0.244-1.079-0.361-1.802-0.361 c0-1.207-0.121-1.924-0.355-2.156c-0.244-0.246-0.846-0.363-1.802-0.363c-0.483 0-0.781 0.053-0.898 0.2 c-0.126 0.117-0.303 0.184-0.541 0.184c-0.483-0.246-0.962-0.428-1.439-0.543c-0.484-0.123-0.963-0.303-1.44-0.543 c0.239-1.201 1.083-1.439 2.519-0.717c-0.239-1.205-0.659-2.158-1.26-2.879c-0.6-0.721-1.137-1.441-1.615-2.158 c-0.244 0-0.845 0.232-1.802 0.717c0.234-1.679-0.6-2.158-2.519-1.439c0-0.962-0.063-1.86-0.181-2.7 c-0.121-0.845-0.181-1.616-0.181-2.338c-0.483 0.233-0.845 0.478-1.078 0.722c-0.245 0.233-0.601 0.595-1.079 1.1 c-0.483-0.244-1.079-0.484-1.802-0.723c-0.717-0.239-1.439-0.484-2.157-0.717c0-0.244 0.117-0.361 0.361-0.361 c-0.488-0.963-1.025-1.861-1.621-2.7c-0.601-0.844-1.742-1.024-3.422-0.541l1.084-1.08c-1.44 0-2.646-0.122-3.602-0.355 c0.238-0.483 0.478-0.904 0.721-1.259c0.235-0.361 0.479-0.787 0.719-1.265l0.722-0.356c0 0.5 0.1 0.8 0.2 0.9 c0.121 0.1 0.2 0.4 0.2 0.899c0.479-1.44 0.723-2.041 0.723-1.796c0-0.724-0.244-1.08-0.723-1.08 c-0.483-0.244-0.84-0.307-1.078-0.18c-0.239 0.117-0.601 0.18-1.079 0.18c-0.718 0-1.206-0.126-1.44-0.361 c-0.238-0.245-0.36-0.483-0.36-0.723c0-0.239-0.122-0.6-0.356-1.08c0 0.2 0.4 0 1.078-0.717l0.361 0.356v-0.717 c-1.205-1.44-2.523-2.157-3.958-2.157c-0.488 0-0.962 0.233-1.44 0.717c-0.244 0-0.483 0.118-0.723 0.361v-1.078 c0-0.961 0.596-1.441 1.802-1.441c0.717 0 0.956-0.361 0.717-1.078c-0.482-0.489-0.717-0.961-0.717-1.441l1.078-0.723l-1.078-1.078 c0.479-0.963 0.717-1.563 0.717-1.802l-0.717-2.158c1.439 0.7 2.5 1.2 3.2 1.44c0.239-1.205 0.419-1.918 0.542-2.158 c0.117-0.239 0.775-0.239 2 0h0.723c1.674-0.957 2.636-0.6 2.9 1.079c1.44-1.2 2.88-1.079 4.3 0.4 c0.723 0.5 1.4 1 2.2 1.439c0.718 0.5 1.4 1 2.2 1.44c0.723 0.7 2 1.6 4 2.5 c0.957 0.5 1.7 0.7 2.2 0.722c0.474 0 0.9 0 1.3 0c0.355 0 0.5 0.4 0.5 1.078l0.722 0.7 c0.479 0.2 1.1 0.5 1.8 0.722c0.723 0.2 1.3 0.5 1.8 0.717c1.44 0.5 2.9 1.1 4.3 1.8 c1.44 0.7 2.9 1.3 4.3 1.802c0.238 0 0.4 0.1 0.5 0.18c0.117 0.1 0.3 0.2 0.5 0.176c0.479 0 1 0 1.4 0 c0.475 0 0.596-0.356 0.355-1.08c0-0.481 0.24-0.717 0.724-0.717c0.956 0.5 1.7 0.7 2.2 0.7 c0.235-0.239 0.362-0.481 0.362-0.717c-0.482 0-0.844-0.063-1.079-0.181c-0.244-0.121-0.483-0.18-0.723-0.18 c0-0.483 0.06-0.844 0.181-1.079c0.118-0.243 0.181-0.6 0.181-1.078c-0.482 0.233-0.844 0.478-1.078 0.7 c-0.244 0.235-0.604 0.361-1.079 0.361c-1.44-0.483-2.523-0.961-3.241-1.439c-0.244-0.244-0.42-0.483-0.542-0.722 c-0.121-0.239-0.42-0.6-0.897-1.08c0.956 0.5 1.8 0.8 2.5 0.904c0.723 0.1 1.4 0.4 2.2 0.898v-1.08 c-1.44-0.483-1.322-1.206 0.355-2.161c-0.717-0.483-1.259-1.021-1.62-1.617c-0.356-0.605-0.898-0.307-1.615 0.9 c0-0.243-0.127-0.361-0.361-0.361c-0.483 0-0.718-0.122-0.718-0.36c-0.488-0.24-0.785-0.537-0.902-0.898 c-0.122-0.361-0.42-0.664-0.898-0.898c-1.206-0.244-1.441-0.722-0.722-1.439c0.956-0.962 1.2-1.802 0.722-2.519 c0-0.239 0.054-0.415 0.181-0.542c0.116-0.117 0.054-0.415-0.181-0.898v-1.44l-1.441 0.718l-0.36-0.356 c1.201-1.201 2.28-2.46 3.241-3.778c0.957-1.318 2.035-2.699 3.236-4.139c0.723-0.957 1.499-1.801 2.343-2.519 c0.836-0.723 1.495-1.558 1.977-2.519c0.479-1.201 1.318-1.562 2.521-1.084c1.439 0.5 2.3 0.7 2.5 0.5 c0.239-0.118 0.956-0.659 2.162-1.621c1.195-1.196 2.455-2.338 3.777-3.417c1.313-1.078 2.573-2.215 3.778-3.421 C315.984 0.4 316.6 0 317.1 0c1.675 0 3.2 0.3 4.7 0.898c1.441 0.6 2.8 1.3 4 2 c0.955 0.5 1.9 1 2.7 1.44c0.84 0.5 1.9 1 3.1 1.44l9.715 4.32c1.68 1 3.2 1.9 4.7 2.7 c1.439 0.8 3 1.6 4.7 2.344c1.918 1.2 3.8 2.2 5.6 3.056c1.801 0.8 3.7 1.7 5.6 2.7 c1.92 1 3.7 1.9 5.2 2.88c1.555 1 3.2 1.9 4.9 2.88c1.92 1.2 3 0.7 3.24-1.44 c0.236-1.44 0.721-2.577 1.443-3.417c0.717-0.84 1.439-1.855 2.154-3.061h0.719c1.92 0 3.2 0.2 4 0.7 c1.912 1 3.8 1.9 5.8 2.7c1.918 0.8 3.8 1.9 5.8 3.06c1.195 0.7 2.3 1.5 3.4 2.3 c1.08 0.8 2.2 1.6 3.4 2.343c1.195 0.7 2.3 1.4 3.4 1.978c1.078 0.6 2.1 1.3 3.1 2 c1.195 1 2.4 1.9 3.6 2.698c1.195 0.8 2.4 1.7 3.6 2.695c2.395 1.9 4.7 3.7 7 5.2 c2.279 1.6 4.6 3.3 7 5.217c0.479 0.5 0.8 0.8 1.1 0.898c0.234 0.1 0.5 0.4 0.7 0.9 c0.955 0.7 1.9 1.5 2.7 2.339c0.84 0.8 1.7 1.6 2.7 2.343c0.723 0.7 1.5 1.3 2.3 1.8 c0.84 0.5 1.6 1 2.3 1.438l5.398 4.32l5.398 4.32c0.951 0.7 1.8 1.4 2.5 2.2 c0.717 0.7 1.4 1.3 2.2 1.801c0.959 0.5 1.8 1 2.5 1.621c0.723 0.6 1.1 1.5 1.1 2.693l0.723 0.723v-1.439 h0.357c0.238 0.5 0.4 1 0.5 1.439c0.113 0.5 0.3 1 0.5 1.441c0 0.479-0.062 0.896-0.18 1.3 c-0.127 0.359-0.182 0.775-0.182 1.26c-0.242 0.477-0.361 0.955-0.361 1.439c0 0.477-0.121 0.834-0.359 1.1 c-0.961 0.717-1.562 1.619-1.797 2.699c-0.244 1.08-0.602 1.977-1.08 2.699c-0.961 1.92-1.438 3.836-1.438 5.8 c0 0.719-0.246 1.078-0.723 1.078c-0.719 0.719-1.383 1.379-1.977 1.977c-0.602 0.596-1.504 0.904-2.703 0.9 c-1.205 0-2.219-0.244-3.057-0.721c-0.846-0.484-1.623-0.961-2.34-1.441c-0.723-0.484-1.324-1.078-1.801-1.797 c-0.484-0.723-0.961-1.322-1.439-1.799c-0.721-1.207-1.498-2.225-2.34-3.062c-0.846-0.846-1.975-1.498-3.418-1.977 c-0.482-0.482-1.076-0.904-1.799-1.258c-0.721-0.363-1.324-0.783-1.801-1.26c-0.963-0.965-1.797-1.867-2.52-2.701 c-0.717-0.844-1.562-1.619-2.52-2.342c-0.961-0.721-1.859-1.383-2.699-1.979c-0.844-0.6-1.744-1.26-2.699-1.982 c-1.201-0.961-2.4-1.859-3.6-2.693c-1.199-0.846-2.4-1.746-3.596-2.699c-0.482-0.488-1.025-0.904-1.621-1.264 c-0.598-0.357-1.141-0.783-1.619-1.26c-0.721-0.963-1.562-1.68-2.52-2.158c-1.441-0.717-2.762-1.68-3.959-2.881 c-0.963-0.482-1.803-1.078-2.52-1.795c-0.717-0.723-1.561-1.441-2.52-2.164c-1.438-1.438-2.645-2.518-3.598-3.234 c-1.205-0.723-2.281-1.441-3.24-2.163c-0.961-0.717-2.039-1.318-3.236-1.796c-1.205-0.723-2.342-1.44-3.422-2.162 c-1.078-0.718-2.219-1.44-3.416-2.158c-0.963-0.722-1.803-1.503-2.52-2.339c-0.723-0.844-1.566-1.503-2.523-1.981 c-1.201-0.961-2.52-1.796-3.959-2.519c-1.434-0.717-2.758-1.562-3.957-2.519l-0.357 0.361l6.477 5.4 c0.48 0.5 0.4 0.958-0.359 1.441c0.955 0.7 1.9 1.4 2.7 2.157c0.842 0.7 1.7 1.6 2.7 2.5 c1.92 1.7 3.8 3.3 5.8 4.855c1.918 1.6 3.8 3.2 5.8 4.862c1.916 1.4 3.8 2.9 5.8 4.5 c1.916 1.6 3.8 3.1 5.8 4.502c1.195 0.7 2.2 1.7 2.9 2.879c0.957 0.7 1.9 1.3 2.7 1.8 c0.84 0.5 1.6 1.3 2.3 2.518c0.951 1.9 1.8 3.7 2.5 5.4c0.479 1 0.1 1.801-1.078 2.5 c-0.723 0-1.086 0.24-1.086 0.723c-0.482 0.957-0.836 1.855-1.076 2.699c-0.238 0.84-0.602 1.736-1.08 2.7 c-0.482 1.195-0.662 2.455-0.541 3.777c0.121 1.316-0.664 2.217-2.34 2.699h-0.359c-0.238 0.955-0.84 0.955-1.797 0 c-0.244 0.479-0.361 0.955-0.361 1.439c0 0.479-0.121 0.955-0.361 1.439c-0.482-0.961-0.84-1.561-1.078-1.799 c-0.238 0.238-0.363 0.477-0.363 0.721c0 0.234-0.121 0.479-0.354 0.719h-1.803c-0.238 0-0.418-0.125-0.543-0.363 c-0.121-0.238-0.303-0.355-0.537-0.355c-0.961-0.482-1.857-0.846-2.697-1.084c-0.846-0.238-1.504-0.84-1.982-1.797 c0-0.244-0.238-0.359-0.717-0.359c-1.441-0.963-2.52-1.562-3.24-1.803c-0.721 0-1.08 0.24-1.08 0.7 c-0.238 1.195-0.482 2.455-0.717 3.779c-0.244 1.318-0.723 2.578-1.441 3.778c-0.963 1.201-1.744 2.461-2.336 3.8 c-0.607 1.316-1.744 2.344-3.424 3.061l-0.355 0.359c-0.244 0-0.488-0.127-0.725-0.359c-0.238-0.244-0.6-0.363-1.076-0.363 c-1.207 0.479-1.926 0.422-2.164-0.18c-0.24-0.602-0.6-1.26-1.078-1.977c-1.68-0.244-2.518 0.359-2.518 1.8 c-0.484 0-0.846-0.064-1.08-0.184c-0.244-0.125-0.484-0.18-0.717-0.18v-2.162l-1.084 1.082l-0.359-0.359 c0.238-0.482 0.359-1.205 0.359-2.158c-0.24 0.234-0.42 0.357-0.537 0.357c-0.127 0-0.305 0.117-0.543 0.4 c-0.484 0.48-0.717 0.959-0.717 1.441c-0.244-0.244-0.484-0.361-0.723-0.361c0.238-0.24 0.361-0.717 0.361-1.439 c0-0.24-0.064-0.42-0.182-0.537c-0.121-0.127-0.18-0.309-0.18-0.543c-0.24 0-0.418 0.059-0.537 0.2 c-0.127 0.119-0.307 0.184-0.543 0.184c-0.961 1.195-1.498 1.195-1.619 0c-0.123-1.205-0.422-1.564-0.898-1.08 c-0.244-0.244-0.361-0.604-0.361-1.086s0.24-1.2 0.723-2.155c-0.723 0.232-1.324 0.359-1.801 0.4 c-0.238 0-0.359-0.242-0.359-0.723c0-0.238-0.125-0.355-0.357-0.355c-1.207-0.244-2.883-0.361-5.043-0.361 c0.238-0.723 0.359-1.32 0.359-1.801c-0.717-1.201-1.498-1.68-2.336-1.441c-0.846 0.24-1.621 0.479-2.338 0.723l-1.08-2.162 c-0.723 0.479-1.207 0.6-1.439 0.361c-0.482-0.484-1.084-0.664-1.801-0.537c-0.719 0.119-1.324 0.176-1.803 0.2 c-0.717 0.24-1.258 0.361-1.615 0.361c-0.361 0-0.426-0.6-0.18-1.799c-0.484 0.238-0.963 0.477-1.439 0.7 c-0.484 0.232-0.963 0.477-1.441 0.715c0.479-1.199 0.596-1.795 0.361-1.795c1.195-0.484 1.615-0.902 1.26-1.26 c-0.361-0.363-0.781-0.781-1.26-1.26l0.719-0.721c-0.24-0.484-0.484-0.783-0.719-0.9c-0.244-0.121-0.361-0.301-0.361-0.543 c-0.244-0.961-0.543-1.381-0.898-1.26c-0.361 0.119-0.785 0.422-1.26 0.906h-0.361c-0.244 0-0.482 0.115-0.721 0.4 c0.238-0.238 0.359-0.717 0.359-1.439c-0.717 0.24-1.801 0.363-3.236 0.363c0-0.24-0.062-0.537-0.18-0.9 c-0.129-0.359-0.182-0.781-0.182-1.26c-0.723 0.719-1.322 0.959-1.801 0.719c-0.482-0.24-1.078-0.6-1.801-1.078 c0.238 0.2 0.4 0.4 0.4 0.541c0 0.1 0.1 0.3 0.4 0.537h-2.158v2.881c0.479 0.2 1.4 0.6 2.9 1.1 c-0.238 0.7 0.2 1.7 1.3 2.877c1.084 1.2 2.1 1.8 3.1 1.803c-0.24 0.232-0.361 0.717-0.361 1.439h1.084 c0 0.48-0.064 0.834-0.18 1.078c-0.129 0.234-0.182 0.598-0.182 1.08c0 0.5 0.1 0.8 0.4 1.1 c0.234 0.2 0.2 0.6 0 1.076c0 2.397-0.244 4.083-0.723 5.043c-0.484 0.953-0.664 1.977-0.537 3.1 c0.117 1.08-0.785 1.5-2.699 1.26c0 0.24-0.127 0.479-0.361 0.723v0.357c-0.723 0-1.387-0.061-1.982-0.174 c-0.6-0.129-1.258-0.184-1.977-0.184c-0.482 0-0.844-0.062-1.078-0.18c-0.244-0.121-0.605-0.18-1.082-0.18 c-1.203-0.484-2.34-1.025-3.418-1.623c-1.08-0.598-2.338-0.662-3.777-0.18l-0.361-0.357h-2.881c-0.484-0.482-0.78-0.9-0.898-1.258 c-0.121-0.361-0.419-0.664-0.898-0.902c-0.483 0-0.844 0.059-1.078 0.18c-0.245 0.117-0.605 0.18-1.084 0.2 c0-0.242 0.239-0.6 0.723-1.076c-0.483 0-0.781 0.053-0.898 0.18c-0.127 0.117-0.424 0.18-0.903 0.2 c-0.238 0-0.483 0.053-0.717 0.178c-0.244 0.121-0.605 0.057-1.08-0.178c-0.242 0-0.36-0.127-0.36-0.359v-1.08 c-0.243-0.244-0.845-0.604-1.801-1.086c0 0.482-0.059 0.842-0.182 1.086c-0.122 0.234-0.179 0.596-0.179 1.1 c-1.202-0.246-1.563-0.602-1.08-1.08c0.479-0.484 0.479-0.961 0-1.439c0.239-0.245 0.479-0.424 0.722-0.543 c0.235-0.123 0.479-0.303 0.719-0.537l-0.36-0.361c-0.72 0.236-2.041 0.596-3.96 1.08c-0.239 0.233-0.717 0.362-1.435 0.4 l-0.361-0.362l1.44-0.719v-0.361c-1.686 0-2.52-0.961-2.52-2.879c0-0.482-0.244-0.961-0.722-1.439h-0.361 c0 1.439-0.841 2.156-2.52 2.156c1.44 1 2.4 1.6 2.9 1.803l-1.44 0.721c-1.44-0.721-2.641-1.568-3.599-2.523 c-0.962-0.961-1.801-1.434-2.519-1.434c-0.483 0-0.722-0.363-0.722-1.086c-0.239-0.238-0.356-0.6-0.356-1.078h-1.44 c-0.482-0.717-1.024-1.076-1.62-1.076c-0.601 0-1.143-0.125-1.621-0.363c-0.717 0-1.562-0.717-2.519-2.156 c0.478-0.244 1.2-0.363 2.157-0.363c-0.238-1.438-1.435-1.678-3.598-0.717c0.479 0.5 0.7 1.1 0.7 1.8 c-0.962-0.484-1.685-0.602-2.163-0.357c-0.483 0-0.839-0.244-1.079-0.723c-0.238-0.482-0.42-1.141-0.537-1.975 c-0.127-0.848-0.785-1.027-1.981-0.543c-0.483-1.68-1.323-2.041-2.519-1.08c-1.206 0.479-1.802 0.236-1.802-0.723 c0-1.199-0.18-1.615-0.537-1.26c-0.361 0.363-0.781 0.422-1.259 0.182c-0.483-0.484-0.723-1.201-0.723-2.156 c-0.483 0.232-0.78 0.477-0.898 0.715c-0.122 0.24-0.302 0.48-0.541 0.723c-0.239 0-0.356-0.125-0.356-0.359 c0.234 0 0.356-0.123 0.356-0.363l0.361-0.715h-3.242h-1.435c0.234-0.484 0.356-1.08 0.356-1.803v-0.359 c-0.24 0.238-0.42 0.359-0.537 0.359c-0.128 0-0.308 0.117-0.542 0.363c-0.239-2.881-1.679-3.842-4.32-2.881 c-0.717-0.961-1.562-1.803-2.518-2.52c-0.484 0.479-0.846 0.717-1.08 0.717l-4.319-4.314c-1.44 1.674-2.759 1.557-3.958-0.361 h-0.357c-0.482-0.717-0.902-1.381-1.26-1.98c-0.361-0.602-0.785-1.139-1.259-1.617V67.66c-1.206 0.479-1.801 0.84-1.801 1.1 c-1.206 0.477-2.041 0.361-2.519-0.361c-0.483-0.484-0.781-0.898-0.904-1.26c-0.122-0.355-0.419-0.781-0.897-1.26 c-0.239-0.482-0.601-0.898-1.079-1.26c-0.483-0.355-1.078-0.301-1.801 0.182c-0.961 0.479-1.797 0.84-2.519 1.1 c0.24-0.482 0.361-0.898 0.361-1.26c0-0.355 0.117-0.781 0.361-1.26c-0.482-0.961-0.961-1.561-1.439-1.795 c-0.484-0.244-0.903-0.361-1.26-0.361c-0.361 0-0.78-0.123-1.259-0.361c-0.483-0.484-1.205-0.781-2.162-0.898 c-0.962-0.127-1.68-0.664-2.157-1.619h-0.361h-0.361l-2.158-1.08c-0.483-0.484-1.026-0.961-1.621-1.439 c-0.6-0.484-1.381-0.484-2.338 0l0.722 0.717c-0.244 1.2 0.4 1.8 1.8 1.803c0.239 0 0.8 0.5 1.8 1.438h0.361 c0.234 0 0.4 0.1 0.4 0.182c0 0.1 0.1 0.2 0.4 0.18c0.234 0 0.3 0.2 0.2 0.5 c-0.123 0.4 0.1 0.5 0.5 0.543c-0.24 0.477-0.357 0.775-0.357 0.898c0 0.115-0.127 0.414-0.361 0.9 c1.196 0.2 2 0.8 2.3 1.613c0.361 0.8 0.8 1.9 1.3 3.061c0.239 0.5 0.4 1 0.4 1.4 c0 0.5 0.1 1 0.4 1.439c0 0.479-0.064 1.078-0.181 1.797c-0.122 0.723-0.898 1.084-2.338 1.1 c0.717 0.2 1.3 0.6 1.8 1.078c-1.201 1.439-2.041 2.752-2.519 3.959c-0.718-0.484-1.86-0.846-3.417-1.08 c-1.562-0.242-2.583-0.127-3.061 0.357l-1.079 1.082c-0.482-1.205-1.142-1.619-1.982-1.258c-0.839 0.355-1.498 0.414-1.977 0.2 c-0.244-0.484-0.36-0.781-0.36-0.898c0-0.123-0.123-0.42-0.361-0.898v1.439c-1.201-0.242-1.923-0.779-2.158-1.621 c-0.239-0.844-0.6-1.742-1.079-2.697l-1.079 2.156h-1.079c-1.923 0.723-2.88 0-2.88-2.156l-1.079-1.08v1.441 c-0.488-0.246-0.962-0.361-1.44-0.361c-0.484 0-0.962-0.123-1.44-0.361c0.478-2.158 0.054-3.121-1.259-2.881 c-1.323 0.24-2.343 0.121-3.061-0.357c-0.244 0.479-0.361 0.777-0.361 0.898c0 0.117-0.122 0.416-0.361 0.9 c-0.718-0.238-1.562-0.6-2.519-1.078l-1.44 1.439c-0.239 0-0.356-0.062-0.356-0.18c0-0.121-0.127-0.182-0.361-0.182 c0.479-0.482 0.776-0.844 0.898-1.078c0.122-0.24 0.298-0.482 0.542-0.719c-0.483-0.721-1.206-1.205-2.158-1.439 c-0.961-0.244-1.567-0.961-1.801-2.162c-1.44 0.24-2.401-0.355-2.879-1.797c-2.158 0.479-3.725 0.357-4.676-0.361l-1.084-1.078 c-0.483-1.205-1.679-1.322-3.598-0.361c-1.44 0.479-2.04 1.318-1.796 2.52c0 0.479-0.063 1.078-0.181 1.8 c-0.126 0.719-0.18 1.312-0.18 1.797h-0.361v-2.52v-5.037c0-0.484-0.239-0.961-0.718-1.441h-1.44 c0.479 0.2 0.7 0.4 0.7 0.543c0 0.1 0.1 0.3 0.4 0.537v0.361c-0.961-0.484-1.743-1.143-2.338-1.979 c-0.605-0.844-1.503-1.023-2.7-0.539c0-0.484-0.063-0.898-0.181-1.26c-0.122-0.361-0.181-0.781-0.181-1.26 c-0.244 0-0.483 0.053-0.717 0.18c-0.244 0.117-0.605 0.182-1.083 0.182c0.957 1.7 0.7 2.635-0.717 2.879l-0.361 0.355v2.881 c0 0.234-0.064 0.414-0.181 0.541c-0.122 0.117-0.181 0.416-0.181 0.898c-0.483-0.482-0.781-0.844-0.898-1.078 c-0.123-0.244-0.303-0.602-0.537-1.078c-0.723 0.234-1.387 0.414-1.982 0.537c-0.601 0.115-1.259 0.18-1.977 0.18v0.725 c0.952 0.5 1.7 0.7 2.2 0.715c-0.483 0.479-0.844 0.598-1.079 0.361c-1.439-0.482-2.401-0.844-2.88-1.076 c-0.961-0.246-1.801 0-2.519 0.715c-0.483 0.719-1.078 1.08-1.801 1.08c-1.201 0.479-1.44 0.117-0.718-1.08l-0.723-0.361 c-0.239-0.238-0.419-0.354-0.537-0.354c-0.127 0-0.308-0.129-0.542-0.363c-0.718-0.963-1.562-1.322-2.519-1.078 c-0.244 0-0.419-0.062-0.542-0.182c-0.122-0.127-0.302-0.18-0.537-0.18c0.478-0.484 0.776-0.723 0.898-0.723 c0.117 0 0.415-0.123 0.898-0.357c-0.239-0.242-0.356-0.482-0.356-0.723c-0.483 0.24-0.903 0.361-1.259 0.4 c-0.361 0-0.786 0.119-1.259 0.361c-1.206 0.719-2.045 0.48-2.523-0.723c-0.718 0-1.201 0.119-1.435 0.4 c-0.488 0-0.845 0.119-1.083 0.361c-0.24 0.234-0.601 0.48-1.079 0.719l-0.718-0.361v-0.357c0.718-0.242 1.079-0.844 1.079-1.799 c0-0.24 0.478-0.846 1.44-1.803c-2.88 0.723-5.398 0.238-7.556-1.436l0.717-1.438h-3.241c-0.961 0-1.923 0.053-2.875 0.2 c-0.961 0.122-1.801-0.304-2.519-1.259c-0.488-0.483-0.786-0.963-0.903-1.436c-0.122-0.489-0.537-0.361-1.259 0.356l-0.361-0.356 c-0.483-0.245-0.962-0.542-1.435-0.903c-0.488-0.361-0.961-0.664-1.44-0.898c-1.923-0.722-3.241-1.922-3.958-3.597 c-0.723 0.233-1.44 0.355-2.163 0.355c-0.717 0-1.44 0.123-2.158 0.361c0.235-0.483 0.181-0.961-0.181-1.439 c-0.361-0.483 0.06-0.845 1.26-1.08c-1.68 0-2.881 0.117-3.598 0.361l-0.361 0.357c-0.483 1.2-0.961 1.2-1.44 0 c-0.483-0.483-0.717-1.202-0.717-2.159c0-1.922-0.605-2.639-1.801-2.156c-1.44 0.479-2.519 0.595-3.241 0.4 c-1.201 0-2.041-0.483-2.519-1.44c0-0.717-0.357-1.078-1.079-1.078c-0.962-0.483-1.562-0.845-1.796-1.08 c-0.488-0.239-0.962-0.6-1.44-1.078L97.529 39.226z M116.244 36.708c1.44 0.5 2.2 0.2 2.163-0.717 c0-0.483-0.362-1.08-1.079-1.802C116.839 35.1 116.5 36 116.2 36.708z M199.739 57.583l6.479 1.08v-1.08h-1.44h-1.079 c0.239-0.242 0.361-0.424 0.361-0.539c0-0.123 0.117-0.305 0.361-0.543v-1.436c0-0.487-0.361-0.721-1.079-0.721 c-0.723 0-1.206-0.24-1.44-0.717c0-0.245-0.723-0.844-2.163-1.802V57.583z M229.97 57.943h0.723v-8.637h-0.723V57.943z M229.97 72.699h0.361c0.478-2.158 0.361-4.199-0.361-6.117V72.699z M231.771 57.583c1.195 1.2 1.7 1.8 1.4 1.8 c0.957 0 1.313-0.238 1.079-0.717c-0.238-0.482-0.122-0.961 0.361-1.439l-0.361-0.361 C234.051 56.9 233.2 57.1 231.8 57.583z M304.831 41.75c0-1.206-0.425-1.802-1.26-1.802c-0.845 0-1.504-0.243-1.981-0.722 c-0.483 0.479-0.718 0.957-0.718 1.44c0.479 0 0.897-0.176 1.26-0.537c0.361-0.361 0.7 0.1 0.9 1.3 c-0.24 0-0.602 0.234-1.079 0.717C303.146 42.1 304.1 42 304.8 41.75z M309.151 78.1 c-0.962-0.484-1.567-0.719-1.802-0.719h-0.361v2.52c0.478-0.482 0.839-0.781 1.079-0.902 C308.306 78.9 308.7 78.6 309.2 78.097z M310.586 85.298c0.722 0.7 1.4 1.4 2.2 2 c0.718 0.6 1.3 1.1 1.8 1.619c0.723-2.879-0.122-4.08-2.519-3.596c0-0.244 0.059-0.428 0.182-0.543 c0.117-0.123 0.18-0.303 0.18-0.543h-2.52c0.235-0.238 0.361-0.418 0.361-0.535c0-0.121 0.235-0.426 0.719-0.9h-1.08 c-0.243 0-0.36-0.127-0.36-0.359c-0.239 0.477-0.355 1.078-0.355 1.795c0.233 0.5 0.4 0.8 0.5 0.9 c0.116 0.1 0.3 0.4 0.5 0.9L310.586 85.298z M309.151 98.968c0.473 0 1 0.1 1.4 0.2 c0.478 0.1 1 0.2 1.4 0.182l1.44-0.719c-0.718-0.721-1.201-1.084-1.44-1.084c-0.483-0.238-1.438-0.357-2.874-0.357 V98.968z M318.502 89.613c0.723 1 1.2 1.9 1.4 2.879h3.243v-0.359h-0.725c-1.199 0-2.04-0.602-2.518-1.797 C319.943 89.4 319.5 89.1 318.5 89.613z M329.301 107.248l1.439 0.725l1.439-1.443c0.48 0.5 0.8 1 1.1 1.4 c0.955 0 1.439-0.129 1.439-0.363c0-1.205-0.123-2.041-0.361-2.518c-0.482-0.723-0.238-1.568 0.723-2.52 c0.479 1 0.9 1.9 1.3 2.699c0.361 0.8 0.8 1.7 1.3 2.701h0.723c0.236-1.205 0.475-2.465 0.719-3.783 c0.232-1.318 0.594-2.578 1.078-3.78c-0.961 0.479-1.797 0.838-2.52 1.077c-0.717 0.24-1.322 0.482-1.801 0.7 c-0.482 0.238-0.898 0.299-1.26 0.184c-0.355-0.129-0.779-0.184-1.258-0.184c0 0.238-0.238 1.08-0.719 2.52l-0.723 0.7 c-0.482 0-0.838-0.059-1.078-0.176c-0.238-0.127-0.6-0.18-1.08-0.18c0 0.477-0.062 0.834-0.178 1.1 C329.359 106.4 329.3 106.8 329.3 107.248z M331.463 97.529c-1.684 0.479-1.684 1.6 0 3.242V97.529z M334.879 92.9 c-0.121-0.246-0.18-0.484-0.18-0.723h-0.361c-0.238 0.477-0.42 0.9-0.537 1.262c-0.123 0.357-0.303 0.775-0.541 1.3 c0 0.2 0.1 0.4 0.4 0.355l1.078-1.078C334.938 93.4 335 93.1 334.9 92.855z M336.861 70.9 c0 0.2 0.1 0.4 0.2 0.537c0.123 0.1 0.2 0.3 0.2 0.541l2.164-1.078l-0.361-0.723l-0.361-0.361 c-0.482 0.24-0.781 0.42-0.898 0.541C337.639 70.5 337.3 70.7 336.9 70.902z M343.695 91.412l-0.717 1.803h-2.158 c0-1.439 0.357-1.982 1.078-1.619C342.617 92 343.2 91.9 343.7 91.412z M341.537 73.4 c0.236 0.7 0.4 1.8 0.4 3.234c0.959-0.961 1.441-1.561 1.441-1.795C343.34 74.6 342.7 74.1 341.5 73.421z M345.859 74.138l-1.441-2.881c0 0.959-0.244 1.918-0.723 2.881H345.859z M349.094 96.451c0.24-0.484 0.42-0.783 0.543-0.898 c0.117-0.123 0.297-0.418 0.541-0.898c0.234 0.5 0.6 0.7 1.1 0.719c0.477 0 0.5 0.4 0 1.078h3.959v0.721l-2.162 2.2 c0-0.963-0.125-1.564-0.357-1.803c-0.482 0-0.963 0.299-1.439 0.902c-0.484 0.596-1.207 0.537-2.164-0.18 c0.479-0.244 1.084-0.723 1.803-1.439C350.178 96.8 349.6 96.7 349.1 96.451z M353.055 51.8 c-0.961 1.196-1.383 2.279-1.26 3.24c0.115 1 0.2 2 0.2 3.239v8.639c0 0.7 0.2 2 0.7 3.959l0.357-0.361V51.825z M352.697 71.619c-0.482 3.359-0.723 6.713-0.723 10.076c0 3.4 0 6.7 0 10.08h1.08V71.619H352.697z M353.055 16.914h-0.721 v8.278h0.721V16.914z M352.334 40.667h0.721V25.915h-0.721v7.557V40.667z M353.055 46.426h-0.357v3.959h0.357V46.426z M357.371 92.492c0.238-0.238 0.543-0.359 0.9-0.359c0.359 0 0.543-0.123 0.543-0.357v-2.881h-0.721l-1.082 3.238L357.371 92.492z M366.014 103.652v1.795c-0.961-0.238-2.402-0.84-4.322-1.795v-0.363C362.65 103.5 364.1 103.7 366 103.652z M366.014 98.613c0.473-0.482 0.898-0.309 1.3 0.537c0.357 0.8 0.8 0.9 1.3 0.182c0.234-0.24 0.299-0.543 0.18-0.9 c-0.125-0.359-0.305-0.539-0.539-0.539h-2.158V98.613z M372.488 89.613c0.238 0.5 0.4 0.8 0.4 1.1 c0 0.2 0.1 0.6 0.4 1.08h0.723c0.232 0 0.354-0.127 0.354-0.363l-1.076-2.156 C372.971 89.3 372.7 89.4 372.5 89.613z M372.848 97.171c0.477 0.5 0.8 0.8 1.1 1.1 c0.232 0.2 0.6 0.5 1.1 0.717c0.48 0.2 1.3 0.1 2.52-0.355c-0.242-0.482 0.117-0.904 1.078-1.258 c0.957-0.363 0.957-1.145 0-2.346c-0.238 0.24-0.418 0.363-0.541 0.363c-0.121 0-0.301 0.115-0.537 0.359l-1.439-0.723l-1.08 1.1 C374.525 96.6 373.8 96.9 372.8 97.171z M377.527 91.052c0.719 0.7 1.3 0.8 1.8 0.4 c0.721-0.717 0.6-1.678-0.355-2.877c-0.244 0.721-0.723 1.078-1.441 1.078C376.805 89.6 376.8 90.1 377.5 91.052z M386.885 100.052c0.959 0 1.8 0.1 2.5 0.357c0.236-0.238 0.361-0.422 0.361-0.537c0-0.129 0.115-0.309 0.357-0.541 c-1.441-0.484-2.279-0.664-2.518-0.543C387.363 98.9 387.1 99.3 386.9 100.052z M398.402 81.7 c0 0.955-0.064 1.801-0.184 2.518c-0.121 0.7 0.1 1.4 0.5 2.162c0.717 1 1.4 0.8 2.158-0.359 c0.238-0.484 0.838-0.602 1.799-0.363c1.199 0.5 2.039-0.121 2.521-1.797c0-0.961 0.594-1.438 1.801-1.438 c1.674-0.246 2.754-1.324 3.236-3.242c0-0.717 0.479-1.318 1.439-1.797c-0.244 0.479-0.361 1.016-0.361 1.6 c0 0.6-0.121 1.26-0.355 1.982c0.717 0 1.2 0.1 1.4 0.359c0.955-1.205 1.678-2.043 2.16-2.52 c-1.205-0.486-1.922-1.32-2.16-2.523c-0.24-1.199-1.08-1.922-2.52-2.156c-0.961 0.957-1.678 1.801-2.156 2.5 c0.717 0.7 1.3 1.4 1.8 2.162c-0.244 0.234-0.723 0.357-1.439 0.357c-0.244-0.238-0.961-0.123-2.162 0.359v0.363 c-1.441 1.918-3.238 2.156-5.398 0.717C399.357 80.4 398.6 80.7 398.4 81.695z M407.76 62.3 c0 0.2 0.1 0.4 0.4 0.361c0.955 0 1.676-0.127 2.158-0.361c0.479-0.482 0.838-0.961 1.078-1.439 c-0.24-0.484-0.717-0.484-1.439 0c-0.961 0.479-1.678 0.723-2.156 0.723V62.261z M412.797 66.943c0.723 1.4 1.7 1.4 2.9 0 c0.234 0 0.479-0.127 0.717-0.361c0.238 0 0.48-0.127 0.723-0.361c-0.242 0-0.42-0.121-0.541-0.361 c-0.123-0.238-0.303-0.355-0.537-0.355C414.596 66 413.5 66.5 412.8 66.943z M417.479 70.5 c0.715 0.2 1.4 0.4 2.2 0.361c0.721 0 1.32-0.361 1.803-1.084c0.477-0.963 0.117-1.924-1.082-2.875 c-0.484 0.473-0.721 1.014-0.721 1.615c0 0.596-0.482 0.902-1.439 0.902C418.434 69.5 418.2 69.8 417.5 70.541z M422.152 64.419c0.723 0.7 1.2 1.1 1.4 1.084c0.957 0 1.5 0.2 1.6 0.717c0.119 0.5 0.3 1 0.5 1.4 c0.238 0.5 0.4 0.8 0.5 0.898c0.117 0.1 0.3 0.4 0.5 0.902c0-0.244 0.117-0.359 0.355-0.359 c0-0.484 0.059-0.898 0.182-1.26c0.117-0.361 0.299-0.898 0.543-1.621c-0.725 0.234-1.322 0.596-1.801 1.1 c-0.484-0.963-0.9-1.797-1.26-2.52c-0.363-0.719-1.145-0.963-2.34-0.719C422.271 64.1 422.2 64.2 422.2 64.419z M423.953 75.216c0.479 0.5 0.9 0.9 1.3 1.26c0.363 0.4 0.8 0.8 1.3 1.26l0.361-0.357 c-0.242-0.242-0.424-0.482-0.541-0.723c-0.121-0.238-0.305-0.482-0.543-0.717c0.238-0.244 0.479-0.361 0.723-0.361v-0.361H423.953z M428.275 61.9c0 0.2 0.2 0.4 0.7 0.361c0-0.482 0.236-0.961 0.719-1.439c0 0.2 0.2 0.6 0.7 1.1 c0.234 0 0.4 0.1 0.5 0.182c0.121 0.1 0.3 0.2 0.5 0.18c0.479 0 0.723-0.361 0.723-1.078 c-0.244-0.244-0.359-0.424-0.359-0.543c0-0.121-0.127-0.303-0.363-0.537c-0.238-0.242-0.717-0.361-1.439-0.361 c0-0.717 0.119-1.205 0.363-1.438l-0.363-0.361c-0.238 0.238-0.359 0.418-0.359 0.539c0 0.119-0.123 0.299-0.357 0.5 l-0.723 0.717C427.189 60.2 427.1 60.9 428.3 61.9z M430.07 69.101c0 0.2 0.1 0.4 0.2 0.5 c0.117 0.1 0.2 0.3 0.2 0.541c-0.244 1 0.2 1.6 1.4 1.801v1.797c1.195-1.201 1.312-2.52 0.359-3.959 l-0.723-0.717c-0.482-1.686-1.32-1.686-2.518 0H430.07z M430.07 78.818l0.363 0.717c0-0.24 0.053-0.359 0.18-0.359 c0.115 0 0.18-0.123 0.18-0.357c0.234-0.486 0.357-1.205 0.357-2.162c0.479 0 1 0.1 1.4 0.4 c0-1.205-0.121-2.039-0.357-2.518l-0.723-0.361c-0.238 0.723-0.598 1.557-1.076 2.518C430.189 77.1 430.1 77.9 430.1 78.818z M434.391 84.574h0.359H434.391c0.234-0.484 0.359-0.896 0.359-1.26c0-0.359 0.238-0.664 0.721-0.896 c0.723-0.963 0.359-1.924-1.08-2.883c-0.482 0.482-0.898 0.9-1.258 1.26c-0.363 0.363-0.783 0.777-1.26 1.26L434.391 84.574z M442.307 75.578c0.48 0.5 1 0.5 1.6 0.18c0.596-0.361 0.9 0.1 0.9 1.26c0.236-0.242 0.416-0.482 0.543-0.723 c0.117-0.238 0.297-0.482 0.537-0.717c-0.24-0.244-0.361-0.42-0.361-0.543c0-0.121-0.123-0.301-0.357-0.535 c-0.961-0.244-1.922-0.723-2.881-1.439V75.578z M447.344 83.496c0.482-0.482 1.08-0.602 1.803-0.363 c0.719 0.2 1.312-0.238 1.797-1.438c-0.717 0.477-1.381 0.775-1.977 0.902C448.365 82.7 447.8 83 447.3 83.496z M452.027 80.255c3.354 0.7 4.7 0 3.957-2.158c-0.486 0-0.9-0.062-1.258-0.182c-0.359-0.121-0.787-0.059-1.266 0.2 L452.027 80.255z M454.547 86.015c0 0.5 0.2 1.4 0.7 2.879h2.518c0-0.246 0.061-0.42 0.182-0.543 c0.117-0.121 0.182-0.301 0.182-0.535v-0.725h-1.441c-0.244 0-0.42-0.057-0.541-0.18c-0.123-0.121-0.303-0.174-0.537-0.174 l0.359-0.723h1.082c0.232 0 0.5 0.1 0.7 0.359v-1.439c-1.199 0-2.039 0.119-2.518 0.4 C454.779 85.3 454.5 85.5 454.5 86.015z M457.422 81.695c0.479 0.5 0.8 0.7 1.1 0.723l1.439 0.7 c0.721-0.238 1.08-0.842 1.08-1.795c0-0.723-0.244-1.082-0.723-1.082c-0.482 0.238-1.02 0.359-1.617 0.4 C458.08 80.6 457.7 81 457.4 81.695z" class="style1"/></g></svg>